<mxfile host="app.diagrams.net" modified="2024-07-11T11:48:00.511Z" agent="Mozilla/5.0 (Windows NT 10.0; Win64; x64) AppleWebKit/537.36 (KHTML, like Gecko) Chrome/126.0.0.0 Safari/537.36" version="24.6.4" etag="On7rOa2v1ShlO1qzhgqz" type="github">
  <diagram name="PÃ¡gina-1" id="to1KsSHP9r2vgVOXbDTh">
    <mxGraphModel>
      <root>
        <mxCell id="0" />
        <mxCell id="1" parent="0" />
      </root>
    </mxGraphModel>
  </diagram>
</mxfile>
